<svg width="20" height="20" viewBox="0 0 20 20" fill="none" xmlns="http://www.w3.org/2000/svg">
<path d="M5.83333 15.8333C5.83333 16.2753 5.65774 16.6993 5.34518 17.0118C5.03262 17.3244 4.60869 17.5 4.16667 17.5C3.72464 17.5 3.30072 17.3244 2.98816 17.0118C2.67559 16.6993 2.5 16.2753 2.5 15.8333C2.5 15.3913 2.67559 14.9674 2.98816 14.6548C3.30072 14.3422 3.72464 14.1666 4.16667 14.1666C4.60869 14.1666 5.03262 14.3422 5.34518 14.6548C5.65774 14.9674 5.83333 15.3913 5.83333 15.8333ZM5.83333 15.8333H8.33333C8.77536 15.8333 9.19928 15.6577 9.51184 15.3452C9.8244 15.0326 10 14.6087 10 14.1666V7.49998C10 7.05795 10.1756 6.63403 10.4882 6.32147C10.8007 6.00891 11.2246 5.83331 11.6667 5.83331H17.5" stroke="white" stroke-width="2" stroke-linecap="round" stroke-linejoin="round"/>
<path d="M15 3.33331L17.5 5.83331L15 8.33331" stroke="white" stroke-width="2" stroke-linecap="round" stroke-linejoin="round"/>
</svg>
