<svg width="16" height="16" viewBox="0 0 16 16" fill="none" xmlns="http://www.w3.org/2000/svg">
<g clip-path="url(#clip0_185_25)">
<path fill-rule="evenodd" clip-rule="evenodd" d="M7.1149 0.72536C7.39276 0.598672 7.69457 0.533112 7.99994 0.533112C8.30521 0.533112 8.60693 0.598628 8.8847 0.725231L14.6079 3.33031C14.8659 3.44527 15.0853 3.63232 15.2396 3.86901C15.3949 4.10728 15.4776 4.38558 15.4776 4.67002C15.4776 4.95445 15.3949 5.23275 15.2396 5.47103C15.0852 5.70778 14.8658 5.89486 14.6077 6.00981L8.89194 8.60787C8.89193 8.60788 8.89196 8.60787 8.89194 8.60787C8.61403 8.73463 8.31208 8.80026 8.00661 8.80026C7.70122 8.80026 7.39939 8.73469 7.12153 8.60799L1.40514 6.00297C1.14721 5.888 0.927907 5.70099 0.773632 5.46436C0.618288 5.22609 0.53558 4.94779 0.53558 4.66335C0.53558 4.37891 0.618288 4.10061 0.773632 3.86234C0.927953 3.62564 1.14734 3.43859 1.40538 3.32363L7.1149 0.72536C7.115 0.725315 7.1148 0.725404 7.1149 0.72536ZM7.99994 2.13311C7.92357 2.13311 7.84809 2.14951 7.77861 2.18121L2.32408 4.66343L7.78502 7.15204C7.85451 7.18374 7.93024 7.20026 8.00661 7.20026C8.08298 7.20026 8.15846 7.18385 8.22794 7.15216L13.6888 4.66993L8.22185 2.18147C8.15237 2.14977 8.07631 2.13311 7.99994 2.13311ZM0.604739 8.10285C0.787271 7.70049 1.26142 7.52228 1.66378 7.70481L7.77861 10.4788C7.84809 10.5105 7.92357 10.5269 7.99994 10.5269C8.07631 10.5269 8.15179 10.5105 8.22128 10.4788L8.22277 10.4781L14.3361 7.70481C14.7385 7.52228 15.2126 7.70049 15.3951 8.10285C15.5777 8.50521 15.3995 8.97935 14.9971 9.16189L8.88528 11.9345C8.885 11.9347 8.88473 11.9348 8.88446 11.9349C8.60675 12.0614 8.30513 12.1269 7.99994 12.1269C7.69473 12.1269 7.39307 12.0614 7.11534 11.9349C7.1151 11.9348 7.11485 11.9347 7.11461 11.9345L1.00277 9.16189C0.600413 8.97935 0.422207 8.50521 0.604739 8.10285ZM0.604739 11.4362C0.787271 11.0338 1.26142 10.8556 1.66378 11.0381L7.77861 13.8122C7.84809 13.8439 7.92357 13.8603 7.99994 13.8603C8.07631 13.8603 8.15179 13.8439 8.22128 13.8122L8.22277 13.8115L14.3361 11.0381C14.7385 10.8556 15.2126 11.0338 15.3951 11.4362C15.5777 11.8385 15.3995 12.3127 14.9971 12.4952L8.88528 15.2679C8.885 15.268 8.88473 15.2681 8.88446 15.2682C8.60675 15.3948 8.30512 15.4603 7.99994 15.4603C7.69473 15.4603 7.39307 15.3948 7.11534 15.2682C7.1151 15.2681 7.11485 15.268 7.11461 15.2679L1.00277 12.4952C0.600413 12.3127 0.422207 11.8385 0.604739 11.4362Z" fill="white"/>
</g>
<defs>
<clipPath id="clip0_185_25">
<rect width="16" height="16" fill="white"/>
</clipPath>
</defs>
</svg>

