<svg width="19" height="19" viewBox="0 0 19 19" fill="none" xmlns="http://www.w3.org/2000/svg">
<path fill-rule="evenodd" clip-rule="evenodd" d="M10.9874 1.41196C11.4649 0.934568 12.1125 0.666419 12.7877 0.666504C13.4629 0.666589 14.1104 0.9349 14.5878 1.41241C15.0652 1.88992 15.3334 2.53752 15.3333 3.21274C15.3332 3.88796 15.0649 4.5355 14.5874 5.01289L13.1994 6.40108C13.1809 6.42561 13.1605 6.44915 13.1381 6.4715C13.1158 6.49382 13.0923 6.51423 13.0678 6.53272L5.68948 13.9121L5.68869 13.9129C5.45687 14.144 5.17186 14.3147 4.85869 14.4099L1.95462 15.2905C1.78173 15.3425 1.598 15.3467 1.42293 15.3027C1.24786 15.2587 1.08796 15.1681 0.960209 15.0405C0.832457 14.913 0.741614 14.7532 0.697319 14.5782C0.653024 14.4032 0.656927 14.2195 0.708617 14.0465L0.709445 14.0438L1.59011 11.1425L1.59066 11.1407C1.6867 10.8274 1.85821 10.5426 2.09011 10.3112C2.09029 10.311 2.09048 10.3108 2.09066 10.3107L9.46771 2.93195C9.48612 2.9076 9.50643 2.88422 9.52863 2.86202C9.5508 2.83986 9.57413 2.81958 9.59844 2.80119L10.9874 1.41196ZM10.0046 4.28078L3.03283 11.2541L3.03208 11.2549C2.95488 11.3318 2.89773 11.4266 2.86565 11.5308C2.86557 11.531 2.86549 11.5313 2.86542 11.5315L2.16686 13.8329L4.47072 13.1343C4.57489 13.1026 4.66972 13.0459 4.74691 12.9691C4.74676 12.9692 4.74707 12.9689 4.74691 12.9691L11.7194 5.99557L10.0046 4.28078ZM12.6621 5.05269L10.9473 3.33787L11.93 2.35489C11.93 2.35493 11.9301 2.35485 11.93 2.35489C12.1575 2.12758 12.466 1.9998 12.7875 1.99984C13.1091 1.99988 13.4175 2.12767 13.6449 2.3551C13.8723 2.58254 14 2.89098 14 3.21258C13.9999 3.53417 13.8721 3.84258 13.6447 4.06996L12.6621 5.05269Z" fill="#FAFAFA"/>
<path d="M17.4551 19L16.6465 16.7617H13.3477L12.5449 19H11.3965L14.3848 11.0957H15.6562L18.5918 19H17.4551ZM15.0059 11.9395L14.9355 12.168L14.5312 13.4102L13.6465 15.8887H16.3594L15.3457 12.959L15.0059 11.9395Z" fill="#FAFAFA"/>
</svg>
