<svg width="55" height="16" viewBox="0 0 55 16" fill="none" xmlns="http://www.w3.org/2000/svg">
<path fill-rule="evenodd" clip-rule="evenodd" d="M15.8502 0.000314583H10.8573L0.872314 15.9997H5.3528L6.76105 13.4602H11.8816V15.9997H15.8502V0.000314583ZM8.68112 10.1591L12.1376 4.06382L12.0098 10.1591H8.68112ZM50.6699 0.000314583H54.7664V15.9997H50.6699V0.000314583ZM44.7814 0.000314583H48.878V15.9997H44.7814V0.000314583ZM25.4509 5.7144H29.6753V2.79378C29.6753 2.79378 29.8035 0.000314583 26.9874 0.000314583H19.6904C19.1782 0.000314583 17.2578 0.508331 17.2578 2.66693V5.07954C17.2578 5.33354 17.2578 6.22241 18.6661 7.11128C20.0743 8.00016 24.9391 10.9208 24.9391 10.9208C24.9391 10.9208 25.5791 11.1748 25.5791 11.9371C25.5791 12.6988 25.1952 12.6988 24.683 12.6988H21.9947C21.9947 12.6988 21.3547 12.8254 21.3547 12.0637V10.1591H17.2582V13.3337C17.2582 13.3337 17.1303 16 20.2025 16H26.8595C27.2437 16 29.5481 15.8735 29.5481 13.4605V10.9211C29.5481 10.9211 29.8042 9.65168 28.2677 8.63533L21.7386 4.82552C21.7386 4.82552 21.2265 4.44467 21.2265 4.06382C21.2265 3.80949 21.3544 3.17463 21.9944 3.17463H24.8109C24.8109 3.17463 25.4509 3.17463 25.4509 3.93634V5.7144ZM34.924 10.1591V12.0637C34.924 12.9525 35.4359 12.8254 35.4359 12.8254H38.6363C39.0206 12.8254 39.1481 12.8254 39.1481 11.9371V10.2859H43.2447V13.4605C43.2447 15.8735 40.9403 16 40.5561 16H33.8997C30.8269 16 30.9554 13.3337 30.9554 13.3337V2.66661C30.9554 0.508017 32.8755 0 33.3873 0H40.5561C43.3729 0 43.3729 2.79346 43.3729 2.79346V5.71408H39.1481V4.0635C39.1481 3.30148 38.5084 3.17432 38.5084 3.17432H35.6916C34.9237 3.17432 34.9237 3.80918 34.9237 4.19035L34.924 10.1591Z" fill="white"/>
</svg>
